<?xml version="1.0" encoding="utf-8"?>
<!-- Generator: Adobe Illustrator 22.1.0, SVG Export Plug-In . SVG Version: 6.00 Build 0)  -->
<!DOCTYPE svg PUBLIC "-//W3C//DTD SVG 1.1//EN" "http://www.w3.org/Graphics/SVG/1.1/DTD/svg11.dtd">
<svg version="1.1" id="Layer_1" xmlns="http://www.w3.org/2000/svg" xmlns:xlink="http://www.w3.org/1999/xlink" x="0px" y="0px"
	 viewBox="0 0 677 438" style="enable-background:new 0 0 677 438;" xml:space="preserve">
<style type="text/css">
	.st0{fill:#FFFFFF;stroke:#949494;stroke-width:0.5;stroke-linecap:round;stroke-linejoin:round;stroke-miterlimit:10;}
	.Graphic_x0020_Style{fill:none;stroke:#448AFF;stroke-width:0.75;stroke-miterlimit:10;}
	.Graphic_x0020_Style_x0020_4{fill:none;stroke:#448AFF;stroke-width:0.75;stroke-miterlimit:10;}
	.st1{opacity:0.2;fill:#448AFF;}
	.st2{fill:#F7F7F7;}
	.st3{fill:none;stroke:#448AFF;stroke-width:0.5;stroke-miterlimit:10;stroke-dasharray:3,1,1,1;}
	.st4{fill:none;}
	.st5{fill:#404041;}
	.st6{font-family:'MyriadPro-Regular';}
	.st7{font-size:6px;}
	.st8{fill:none;stroke:#448AFF;stroke-width:0.75;stroke-miterlimit:10;}
	.st9{fill:#448AFF;}
	.st10{font-family:'Helvetica';}
	.st11{font-size:8px;}
	.st12{font-family:'Helvetica-Bold';}
	.st13{font-size:12px;}
	.st14{fill:none;stroke:#448AFF;stroke-width:0.5;stroke-miterlimit:10;stroke-dasharray:2.9686,0.9895,0.9895,0.9895;}
	.st15{fill:none;stroke:#448AFF;stroke-miterlimit:10;}
</style>
<symbol  id="New_Symbol" viewBox="-33.9 -18.7 67.7 37.4">
	<polygon class="st0" points="29.7,16.3 30,-18.4 -33.3,-18.4 -33.6,16.3 	"/>
	<polygon class="st0" points="29.7,16.3 33.3,18.4 33.6,-16.3 30,-18.4 	"/>
	<polygon class="st0" points="-33.6,16.3 -30,18.4 33.3,18.4 29.7,16.3 	"/>
</symbol>
<symbol  id="New_Symbol_1" viewBox="-28.9 -19.7 57.8 39.4">
	<path class="st0" d="M-28.6-14.5c0-2.7,12.8-4.9,28.6-4.9s28.6,2.2,28.6,4.9v29h-57.3V-14.5z"/>
	<ellipse class="st0" cx="0" cy="14.5" rx="28.6" ry="4.9"/>
</symbol>
<path id="path3315" class="st1" d="M325,192.8c-0.1,0-0.2,0-0.3,0.1C324.9,192.9,325,192.8,325,192.8 M331.7,194.2l0.1-1l-1,0.1
	l0.1,0.9H331.7 M320,211.2c-0.2-0.2-0.1-1.1-0.1-1.1s-3.1-1.6-6.5-2.6c-0.4-0.1-0.2-1,0.2-1.3l-0.1-0.9c-0.1-0.5,0.7-2.7,1.5-2.9
	c0.8-0.2-0.1,1.3-0.1,1.3l-0.8,0.5c0,0,0.9,1.1,1.1,1.1c0.2,0,0.6-0.5,0.6-0.5l-1-0.7l0.9-0.4l0.1-0.3l0.2,0l1.5-2.3
	c1-0.4,2.3-0.9,2.5-1c0.3-0.1,2.2-1.2,2.6-1.5c0.3-0.3,1.1-0.2,1.4-0.2c0.3,0,0.7-0.1,0.8-0.9c0.1-0.7,0.3-0.9,0.6-0.7
	c0.2,0.2-0.2,0.5,0.3,0.7c0.5,0.1,0.9,0.5,1.3,0.1c0.3-0.2-0.1-0.5-0.3-0.7h3.9l0.4-1.2l-0.9-0.1l-3.3-0.3v-0.4l-0.3,0
	c0.4-2,2.5-1.7,0.9-2.8c-0.1-0.1-1.5,2.2-1.9,2.2c-0.7-0.1-1.5-0.1-1.7,0.1c-0.2,0.3,0.5-1,1.2-1.3c-0.8,0.2-2.2-0.5-4.8,1.3
	c-0.9,0.6-3,3.1-3.9,4c-3.8,4.5-4.1,8.3-4.1,8.4c0,0.3,0.8,0.5,0.9,0.9c0.1,0.4-1.3,1.7-1.3,2.4c0,0.3-0.7,3.6,0.8,7.7
	c1.4,3.9,4,7.3,4.3,7.6l1-0.5c0,0-1.6-2.8-1.7-3.1c-0.1-0.3,1.8-4.1,2.7-3.9c0.9,0.1,0.7,0.4,1.3,0.1c0.6-0.3,0.9-3,1.5-3.3
	c0.6-0.3,1.3-0.6,1.3-1.3C322.5,212.6,320.2,211.4,320,211.2 M335,191.9l-1.9-0.7l0.3,1.1L335,191.9 M328,194.3c0.2,0,4.4-2.8,4-2.8
	c-0.4-0.1-0.5,0-1.6-0.1c-1.1-0.1-2.3,1.6-2.6,1.8C327.5,193.4,327.6,194.3,328,194.3 M347.2,214.1l0.5-0.7l-0.5-0.2l-0.4,0.5
	l-0.5,0.7l0.4,0.2L347.2,214.1 M349.5,216.4l-0.1-1h-0.9l-0.1,0.8l-0.8-0.1l-0.2-0.8L347,215l-0.5,0.6l-0.5-0.1l-0.1,0.4l0.5,0.1
	v4.1l1.9,0.5c0,0.1-0.1,0.1-0.1,0.2c-0.1,0.4,0.5,0.6,1,0.4c0.2-0.1,1.3-0.5,1.6-1.3c0.5-1.2,0.8-2.8,0.9-3.4l-0.2-0.5l-1.3,0.5
	L349.5,216.4L349.5,216.4 M348.8,199.5c-3.1-4.7-10.5-7.7-10.5-7.7l-1.9,1l-0.3-0.4l-0.7-0.3v0.6l0.6,0.5l-0.4,0.2l-1.5,0.1
	l-3.5,1.9l0.3,1.5l-0.4,0.1l-0.2,0.3l1.1,1.7l0.1,0.6l-0.9,0.2v1.1l-0.5,0.1l0.1,0.9l-4.6,3.2l0.1,1.8c0.3,0.4,3,3.1,3,3.1
	s3,0.1,3.7-0.3c0.7-0.4,0.2,0.4,0.4,0.6c0.2,0.2,0.3,1.5,0.5,1.6c0.2,0.1,0,0.9,0.3,1.1c0.3,0.3,0.3,3.3,0.3,3.3s1.6,2.7,1.6,3.4
	c0,0.7-0.1,0.6,1.2,0.6c1.3-0.1,1.5-0.6,1.8-0.8c0.3-0.2,0.3-0.6,0.5-1c0.3-0.4,0.7-1.8,1.3-2.3c0.6-0.5,2.2-0.9,2.4-1.8
	c0.1-0.9,0.7-1.6,0.7-1.6l2.9-3.1l-0.1,0.4l-0.1,1.6l0.9-0.3l-0.1-1.7l-0.3-0.3l0,0c0,0-0.2-0.4-0.5-0.4c-0.3,0-1.9,0.4-2.2,0.3
	c-0.3-0.1-1.4-3.1-1.6-3.2c-0.2-0.1-1.5-2.2-1.5-2.2s3,3.6,3.4,4.9c0.3,0.8,1.3,0.1,2.1-0.8l0.2,0.5l0.5-0.1l-0.1-0.6h0.6v1
	l-0.2,0.5l-0.1,0.8l0.5,0.5l0.3-0.4l0.9-0.8l1-0.5l0.3,0.5l0.1,0.7l-0.3,0.8l-0.5,0.4l-0.3,1.1v0.6l-0.6-0.4l-0.1-1.2l-0.9,0.1
	l-0.4,1.1l0.6,0.9l1.4,0.2l1.1-1.1l0.1-2.1l0.5-0.7c0.3,0.9,0.6,1.7,0.6,2.6c0,0.9,0.7-0.5,0.4-3.2
	C352.4,209.2,351.9,202.6,348.8,199.5L348.8,199.5z M335.4,202.3l-3.6-0.1l1.5-1.3h0.8l1.3,0.9V202.3 M339.8,201.8v0.6h-1.5l0.1,0.4
	l-0.9,0.1l-0.1,0.3l-0.7-0.1l-1.2-0.3l0.2-0.3l0.2-0.4l0.7-0.7l0.3,0.5l1-0.1l0.5-0.6l2.1,0.4L339.8,201.8 M340,201l-0.8,0.1
	l-0.1-0.6l1-0.1l0.1-0.6l0.7,0.8L340,201L340,201 M343.9,220.7l-0.5,0.4l0.1,1h0.6v-0.8l0.5-0.7v-1.5l-0.3-0.1L343.9,220.7
	L343.9,220.7 M339.4,218.8c0,0-0.5,0.1,0.1,0.3c0.5,0.2,2.7-3.1,2.7-3.1l-1.8,1.1L339.4,218.8L339.4,218.8 M335.7,231l-0.4-0.4
	l-0.8-0.1l-0.1,0.4l-1.1-0.1l-0.1-0.5h-0.8l-0.9,0.5H330l-0.1-0.4l-2.5-0.3l-0.4,0.4l-1-0.3l-0.1-0.9l-0.5-0.1l-0.5,1l-1.8-0.1
	c0.3,0.2,3,1.8,7.2,2.1c5.5,0.4,8.1-0.9,8.1-0.9l-0.2-0.2L335.7,231L335.7,231L335.7,231L335.7,231z"/>
<path class="st2" d="M479.5,185.5H184.9c-3.7,0-5-1.4-5-3V33.3c0-1.6,1.4-3,3-3h294.5c1.6,0,3,1.4,3,3v149.2
	C480.5,184.1,479.1,185.5,479.5,185.5z"/>
<path class="st3" d="M649.1,185.5H492.2c-1.9,0-2.7-1.4-2.7-3V33.3c0-1.6,0.7-3,1.6-3H648c0.9,0,1.6,1.4,1.6,3v149.2
	C649.6,184.1,648.9,185.5,649.1,185.5z"/>
<g>
	
		<use xlink:href="#New_Symbol"  width="67.7" height="37.4" id="XMLID_1_" x="-33.9" y="-18.7" transform="matrix(1 0 0 -1 435.4256 155.5972)" style="overflow:visible;"/>
	<rect x="410.9" y="151.6" class="st4" width="48.8" height="12.8"/>
	<text transform="matrix(1 0 0 1 424.7207 155.9041)"><tspan x="0" y="0" class="st5 st6 st7">INGRESS</tspan><tspan x="3" y="7.2" class="st5 st6 st7">server </tspan></text>
</g>
<g>
	
		<use xlink:href="#New_Symbol_1"  width="57.8" height="39.4" x="-28.9" y="-19.7" transform="matrix(1 0 0 -1 333.6509 126.1417)" style="overflow:visible;"/>
	<rect x="309.2" y="127.8" class="st4" width="48.8" height="6.4"/>
	<text transform="matrix(1 0 0 1 328.1459 132.0664)" class="st5 st6 st7">Etcd</text>
</g>
<path class="st2" d="M646.6,407.5H29c-1.6,0-3-1.4-3-3V240.8c0-1.7,1.4-3,3-3h617.6c1.7,0,3,1.3,3,3v163.7
	C649.6,406.1,648.2,407.5,646.6,407.5z"/>
<g>
	<g>
		<polygon class="st0" points="94.5,139.3 94.8,174 31.5,174 31.2,139.3 		"/>
		<polygon class="st0" points="94.5,139.3 98.1,137.2 98.4,171.9 94.8,174 		"/>
		<polygon class="st0" points="31.2,139.3 34.8,137.2 98.1,137.2 94.5,139.3 		"/>
	</g>
</g>
<g>
	<g>
		<polygon class="st0" points="94.5,80.4 94.8,115.1 31.5,115.1 31.2,80.4 		"/>
		<polygon class="st0" points="94.5,80.4 98.1,78.3 98.4,113 94.8,115.1 		"/>
		<polygon class="st0" points="31.2,80.4 34.8,78.3 98.1,78.3 94.5,80.4 		"/>
	</g>
</g>
<g>
	<g>
		<polygon class="st0" points="257.1,139.3 257.4,174 194.1,174 193.8,139.3 		"/>
		<polygon class="st0" points="257.1,139.3 260.7,137.2 261,171.9 257.4,174 		"/>
		<polygon class="st0" points="193.8,139.3 197.5,137.2 260.7,137.2 257.1,139.3 		"/>
	</g>
</g>
<use xlink:href="#New_Symbol"  width="67.7" height="37.4" x="-33.9" y="-18.7" transform="matrix(1 0 0 -1 227.4133 96.6862)" style="overflow:visible;"/>
<polygon class="st0" points="158.9,108.6 135.6,108.6 123.9,128.8 135.6,149 158.9,149 170.5,128.8 "/>
<g>
	<g>
		<polyline class="st8" points="98.4,96.7 136,96.7 136,106.7 		"/>
		<g>
			<polygon class="st9" points="98.7,94.4 98.7,99 96.4,96.7 			"/>
		</g>
		<g>
			<polygon class="st9" points="138.2,106.4 133.7,106.4 136,108.6 			"/>
		</g>
	</g>
</g>
<g>
	<g>
		<line class="st8" x1="352.7" y1="266.3" x2="352.7" y2="280.8"/>
		<g>
			<polygon class="st9" points="355,280.5 350.4,280.5 352.7,282.8 			"/>
		</g>
	</g>
</g>
<g>
	<g>
		<line class="st8" x1="286.8" y1="266.3" x2="286.8" y2="280.8"/>
		<g>
			<polygon class="st9" points="289.1,280.5 284.6,280.5 286.8,282.8 			"/>
		</g>
	</g>
</g>
<g>
	<g>
		<line class="st8" x1="286.8" y1="311.3" x2="286.8" y2="332.4"/>
		<g>
			<polygon class="st9" points="289.1,332.1 284.6,332.1 286.8,334.4 			"/>
		</g>
	</g>
</g>
<g>
	<g>
		<line class="st8" x1="220.1" y1="311.3" x2="220.1" y2="332.4"/>
		<g>
			<polygon class="st9" points="222.3,332.1 217.8,332.1 220.1,334.4 			"/>
		</g>
	</g>
</g>
<g>
	<g>
		<line class="st8" x1="352.7" y1="311.3" x2="352.7" y2="332.4"/>
		<g>
			<polygon class="st9" points="355,332.1 350.4,332.1 352.7,334.4 			"/>
		</g>
	</g>
</g>
<g>
	<g>
		<line class="st8" x1="419.6" y1="311.3" x2="419.6" y2="332.4"/>
		<g>
			<polygon class="st9" points="421.8,332.1 417.3,332.1 419.6,334.4 			"/>
		</g>
	</g>
</g>
<g>
	<g>
		<line class="st8" x1="221" y1="266.3" x2="221" y2="280.8"/>
		<g>
			<polygon class="st9" points="223.2,280.5 218.7,280.5 221,282.8 			"/>
		</g>
	</g>
</g>
<g>
	<g>
		<polyline class="st8" points="155.1,311.3 155.1,348.6 193.1,348.6 		"/>
		<g>
			<polygon class="st9" points="192.8,346.4 192.8,350.9 195.1,348.6 			"/>
		</g>
	</g>
</g>
<g>
	<g>
		<line class="st8" x1="155.1" y1="266.3" x2="155.1" y2="280.8"/>
		<g>
			<polygon class="st9" points="157.4,280.5 152.8,280.5 155.1,282.8 			"/>
		</g>
	</g>
</g>
<g>
	<g>
		<polyline class="st8" points="98.4,160.9 136,160.9 136,150.9 		"/>
		<g>
			<polygon class="st9" points="98.7,158.7 98.7,163.2 96.4,160.9 			"/>
		</g>
		<g>
			<polygon class="st9" points="133.7,151.2 138.2,151.2 136,149 			"/>
		</g>
	</g>
</g>
<g>
	<g>
		<polyline class="st8" points="192,96.7 158.5,96.7 158.5,106.7 		"/>
		<g>
			<polygon class="st9" points="191.7,99 191.7,94.4 194,96.7 			"/>
		</g>
		<g>
			<polygon class="st9" points="160.8,106.4 156.2,106.4 158.5,108.6 			"/>
		</g>
	</g>
</g>
<g id="New_Symbol_2">
	<g>
		<g>
			<polyline class="Graphic_x0020_Style" points="192,160.9 158.5,160.9 158.5,150.9 			"/>
			<g>
				<polygon class="st9" points="191.7,163.2 191.7,158.7 194,160.9 				"/>
			</g>
			<g>
				<polygon class="st9" points="156.2,151.2 160.8,151.2 158.5,149 				"/>
			</g>
		</g>
	</g>
</g>
<g id="New_Symbol_3">
	<g>
		<g>
			<polyline class="Graphic_x0020_Style" points="399.9,95.2 382,95.2 382,126.7 364.3,126.7 			"/>
			<g>
				<polygon class="st9" points="399.5,97.5 399.5,93 401.8,95.2 				"/>
			</g>
			<g>
				<polygon class="st9" points="364.6,128.9 364.6,124.4 362.3,126.7 				"/>
			</g>
		</g>
	</g>
	<g>
		<g>
			<polyline class="Graphic_x0020_Style" points="399.9,156.6 286.5,156.6 286.2,102.7 260.8,102.7 			"/>
			<g>
				<polygon class="st9" points="399.5,158.9 399.5,154.4 401.8,156.6 				"/>
			</g>
			<g>
				<polygon class="st9" points="261.1,104.9 261.1,100.4 258.8,102.7 				"/>
			</g>
		</g>
	</g>
	<g>
		<g>
			<line class="Graphic_x0020_Style" x1="435.3" y1="136.2" x2="435.3" y2="117.1"/>
			<g>
				<polygon class="st9" points="433,135.9 437.6,135.9 435.3,138.2 				"/>
			</g>
			<g>
				<polygon class="st9" points="433,117.4 437.6,117.4 435.3,115.1 				"/>
			</g>
		</g>
	</g>
	<g>
		<g>
			<polyline class="Graphic_x0020_Style" points="261,156.6 278.7,156.6 278.7,126.7 303,126.7 			"/>
			<g>
				<polygon class="st9" points="261.3,154.4 261.3,158.9 259,156.6 				"/>
			</g>
			<g>
				<polygon class="st9" points="302.7,124.4 302.7,128.9 305,126.7 				"/>
			</g>
		</g>
	</g>
	<g>
		<g>
			<polyline class="Graphic_x0020_Style" points="261,91.3 326.8,91.3 326.8,109.7 			"/>
			<g>
				<polygon class="st9" points="261.3,89 261.3,93.6 259,91.3 				"/>
			</g>
			<g>
				<polygon class="st9" points="329,109.4 324.5,109.4 326.8,111.7 				"/>
			</g>
		</g>
	</g>
	<g>
		<g>
			<polyline class="Graphic_x0020_Style" points="261,96.7 292,96.7 292,151.2 388.2,151.2 388.2,100.7 399.9,100.7 			"/>
			<g>
				<polygon class="st9" points="261.3,94.4 261.3,99 259,96.7 				"/>
			</g>
			<g>
				<polygon class="st9" points="399.5,98.4 399.5,103 401.8,100.7 				"/>
			</g>
		</g>
	</g>
</g>
<g>
	<g>
		<g>
			<polygon class="st0" points="176.9,284.4 177.1,311.3 128.2,311.3 127.9,284.4 			"/>
			<polygon class="st0" points="176.9,284.4 179.7,282.8 179.9,309.7 177.1,311.3 			"/>
			<polygon class="st0" points="127.9,284.4 130.8,282.8 179.7,282.8 176.9,284.4 			"/>
		</g>
	</g>
	<text transform="matrix(1 0 0 1 147.9621 299.8204)" class="st5 st6 st7">CRI</text>
</g>
<g>
	<g>
		<g>
			<polygon class="st0" points="243,284.4 243.3,311.3 194.3,311.3 194.1,284.4 			"/>
			<polygon class="st0" points="243,284.4 245.8,282.8 246.1,309.7 243.3,311.3 			"/>
			<polygon class="st0" points="194.1,284.4 196.9,282.8 245.8,282.8 243,284.4 			"/>
		</g>
	</g>
	<text transform="matrix(1 0 0 1 214.9873 299.8204)" class="st5 st6 st7">CII</text>
</g>
<g>
	<g>
		<g>
			<polygon class="st0" points="309.2,284.4 309.4,311.3 260.4,311.3 260.2,284.4 			"/>
			<polygon class="st0" points="309.2,284.4 312,282.8 312.2,309.7 309.4,311.3 			"/>
			<polygon class="st0" points="260.2,284.4 263,282.8 312,282.8 309.2,284.4 			"/>
		</g>
	</g>
	<text transform="matrix(1 0 0 1 279.8582 299.8204)" class="st5 st6 st7">CNI</text>
</g>
<g>
	<g>
		<g>
			<polygon class="st0" points="375.3,284.4 375.5,311.3 326.5,311.3 326.3,284.4 			"/>
			<polygon class="st0" points="375.3,284.4 378.1,282.8 378.3,309.7 375.5,311.3 			"/>
			<polygon class="st0" points="326.3,284.4 329.1,282.8 378.1,282.8 375.3,284.4 			"/>
		</g>
	</g>
	<text transform="matrix(1 0 0 1 346.3648 299.8204)" class="st5 st6 st7">CPI</text>
</g>
<g>
	<g>
		<g>
			<polygon class="st0" points="441.4,284.4 441.6,311.3 392.7,311.3 392.4,284.4 			"/>
			<polygon class="st0" points="441.4,284.4 444.2,282.8 444.5,309.7 441.6,311.3 			"/>
			<polygon class="st0" points="392.4,284.4 395.3,282.8 444.2,282.8 441.4,284.4 			"/>
		</g>
	</g>
	<text transform="matrix(1 0 0 1 412.6098 299.8204)" class="st5 st6 st7">CSI</text>
</g>
<g>
	<g>
		<g>
			<polygon class="st0" points="565.6,284.4 565.8,311.3 516.9,311.3 516.6,284.4 			"/>
			<polygon class="st0" points="565.6,284.4 568.4,282.8 568.6,309.7 565.8,311.3 			"/>
			<polygon class="st0" points="516.6,284.4 519.4,282.8 568.4,282.8 565.6,284.4 			"/>
		</g>
	</g>
	<text transform="matrix(1 0 0 1 534.8001 296.8202)"><tspan x="0" y="0" class="st5 st6 st7">Logs</tspan><tspan x="-4.7" y="7.2" class="st5 st6 st7">Exporter</tspan></text>
</g>
<g>
	<g id="XMLID_4_">
		<g>
			<polygon class="st0" points="507.5,336 507.8,362.9 458.8,362.9 458.6,336 			"/>
			<polygon class="st0" points="507.5,336 510.4,334.4 510.6,361.3 507.8,362.9 			"/>
			<polygon class="st0" points="458.6,336 461.4,334.4 510.4,334.4 507.5,336 			"/>
		</g>
	</g>
	<text transform="matrix(1 0 0 1 475.6482 350.4003)" class="st5 st6 st7">Proxy</text>
</g>
<g>
	<g>
		<g>
			<polygon class="st0" points="441.7,336 441.9,362.9 392.9,362.9 392.7,336 			"/>
			<polygon class="st0" points="441.7,336 444.5,334.4 444.7,361.3 441.9,362.9 			"/>
			<polygon class="st0" points="392.7,336 395.5,334.4 444.5,334.4 441.7,336 			"/>
		</g>
	</g>
	<text transform="matrix(1 0 0 1 411.0121 348.4002)"><tspan x="0" y="0" class="st5 st6 st7">Host</tspan><tspan x="2.1" y="7.2" class="st5 st6 st7">Dir</tspan></text>
</g>
<g>
	<g>
		<g>
			<polygon class="st0" points="375.8,336 376,362.9 327,362.9 326.8,336 			"/>
			<polygon class="st0" points="375.8,336 378.6,334.4 378.8,361.3 376,362.9 			"/>
			<polygon class="st0" points="326.8,336 329.6,334.4 378.6,334.4 375.8,336 			"/>
		</g>
	</g>
	<text transform="matrix(1 0 0 1 345.4518 350.4003)" class="st5 st6 st7">IPVS</text>
</g>
<g>
	<g>
		<g>
			<polygon class="st0" points="309.9,336 310.1,362.9 261.2,362.9 260.9,336 			"/>
			<polygon class="st0" points="309.9,336 312.7,334.4 313,361.3 310.1,362.9 			"/>
			<polygon class="st0" points="260.9,336 263.8,334.4 312.7,334.4 309.9,336 			"/>
		</g>
	</g>
	<text transform="matrix(1 0 0 1 276.7503 350.4003)" class="st5 st6 st7">VxLAN</text>
</g>
<g>
	<g>
		<g>
			<polygon class="st0" points="244,336 244.3,362.9 195.3,362.9 195.1,336 			"/>
			<polygon class="st0" points="244,336 246.8,334.4 247.1,361.3 244.3,362.9 			"/>
			<polygon class="st0" points="195.1,336 197.9,334.4 246.8,334.4 244,336 			"/>
		</g>
	</g>
	<text transform="matrix(1 0 0 1 210.2812 344.4)"><tspan x="0" y="0" class="st5 st6 st7">Docker</tspan><tspan x="4.1" y="7.2" class="st5 st6 st7">RKT</tspan><tspan x="1.6" y="14.4" class="st5 st6 st7">RUNC</tspan></text>
</g>
<g>
	<g>
		<g>
			<polygon class="st0" points="507.5,284.4 507.8,311.3 458.8,311.3 458.6,284.4 			"/>
			<polygon class="st0" points="507.5,284.4 510.4,282.8 510.6,309.7 507.8,311.3 			"/>
			<polygon class="st0" points="458.6,284.4 461.4,282.8 510.4,282.8 507.5,284.4 			"/>
		</g>
	</g>
	<text transform="matrix(1 0 0 1 473.4269 296.8202)"><tspan x="0" y="0" class="st5 st6 st7">Metrics</tspan><tspan x="-1.6" y="7.2" class="st5 st6 st7">Exporter</tspan></text>
</g>
<g>
	<g>
		<g>
			<polygon class="st0" points="562.4,80.4 562.7,115.1 499.4,115.1 499.1,80.4 			"/>
			<polygon class="st0" points="562.4,80.4 566,78.3 566.3,113 562.7,115.1 			"/>
			<polygon class="st0" points="499.1,80.4 502.8,78.3 566,78.3 562.4,80.4 			"/>
		</g>
	</g>
	<rect x="508.3" y="91.3" class="st4" width="48.8" height="12.8"/>
	<text transform="matrix(1 0 0 1 523.6091 95.5687)"><tspan x="0" y="0" class="st5 st6 st7">Metrics</tspan><tspan x="-1.8" y="7.2" class="st5 st6 st7">collector</tspan></text>
</g>
<rect x="202.8" y="91.3" class="st4" width="48.8" height="12.8"/>
<text transform="matrix(1 0 0 1 216.4203 95.5687)"><tspan x="0" y="0" class="st5 st6 st7">REST API</tspan><tspan x="3.2" y="7.2" class="st5 st6 st7">server </tspan></text>
<rect x="202.8" y="150.2" class="st4" width="48.8" height="12.8"/>
<text transform="matrix(1 0 0 1 220.2392 154.4797)"><tspan x="0" y="0" class="st5 st6 st7">Proxy</tspan><tspan x="-0.6" y="7.2" class="st5 st6 st7">server </tspan></text>
<g>
	
		<use xlink:href="#New_Symbol"  width="67.7" height="37.4" id="XMLID_3_" x="-33.9" y="-18.7" transform="matrix(1 0 0 -1 435.4256 96.6862)" style="overflow:visible;"/>
	<rect x="410.9" y="92.7" class="st4" width="48.8" height="12.8"/>
	<text transform="matrix(1 0 0 1 420.8896 96.9931)"><tspan x="0" y="0" class="st5 st6 st7">DISCOVERY</tspan><tspan x="6.8" y="7.2" class="st5 st6 st7">server </tspan></text>
</g>
<g>
	<g>
		<g>
			<polygon class="st0" points="562.4,139.3 562.7,174 499.4,174 499.1,139.3 			"/>
			<polygon class="st0" points="562.4,139.3 566,137.2 566.3,171.9 562.7,174 			"/>
			<polygon class="st0" points="499.1,139.3 502.8,137.2 566,137.2 562.4,139.3 			"/>
		</g>
	</g>
	<rect x="508.3" y="150.2" class="st4" width="48.8" height="12.8"/>
	<text transform="matrix(1 0 0 1 526.804 154.4797)"><tspan x="0" y="0" class="st5 st6 st7">Logs</tspan><tspan x="-4.9" y="7.2" class="st5 st6 st7">collector</tspan></text>
</g>
<g>
	
		<use xlink:href="#New_Symbol"  width="67.7" height="37.4" id="XMLID_6_" x="-33.9" y="-18.7" transform="matrix(1 0 0 -1 67.8515 265.893)" style="overflow:visible;"/>
	<rect x="43.3" y="261.9" class="st4" width="48.8" height="12.8"/>
	<text transform="matrix(1 0 0 1 57.0714 266.1999)" class="st5 st6 st7">Runtime</text>
</g>
<rect x="38.6" y="93.5" class="st4" width="48.8" height="6.3"/>
<text transform="matrix(1 0 0 1 54.0444 97.7878)" class="st5 st6 st7">WEB UI</text>
<rect x="38.6" y="153.5" class="st4" width="48.8" height="6.3"/>
<text transform="matrix(1 0 0 1 53.4413 157.7448)" class="st5 st6 st7">CLI APP</text>
<rect x="99.5" y="122.7" class="st4" width="24.4" height="12.2"/>
<text transform="matrix(1 0 0 1 104.0084 126.9751)"><tspan x="0" y="0" class="st5 st6 st7">HTTPs</tspan><tspan x="2.9" y="7.2" class="st5 st6 st7">TCP</tspan></text>
<rect x="134.1" y="122.7" class="st4" width="24.4" height="12.2"/>
<text transform="matrix(1 0 0 1 140.0838 126.9751)"><tspan x="0" y="0" class="st5 st6 st7">Load</tspan><tspan x="-4.5" y="7.2" class="st5 st6 st7">Balancer</tspan></text>
<rect x="586.8" y="383.5" class="st4" width="57.3" height="15.9"/>
<text transform="matrix(1 0 0 1 595.584 389.2781)"><tspan x="0" y="0" class="st5 st10 st11">Last.Backend </tspan><tspan x="6.2" y="9.6" class="st5 st10 st11">Node Agent</tspan></text>
<rect x="415.8" y="37.6" class="st4" width="57.3" height="15.9"/>
<text transform="matrix(1 0 0 1 424.6217 43.3434)"><tspan x="0" y="0" class="st5 st10 st11">Last.Backend </tspan><tspan x="24" y="9.6" class="st5 st10 st11">Master</tspan></text>
<rect x="586.8" y="35.6" class="st4" width="57.3" height="15.9"/>
<text transform="matrix(1 0 0 1 625.377 41.3604)" class="st5 st10 st11">Soon</text>
<text transform="matrix(1 0 0 1 23.8387 42.6255)" class="st5 st12 st13">Last.Backend Structure</text>
<g>
	<rect x="309.1" y="55.9" class="st4" width="48.8" height="12.8"/>
	<text transform="matrix(1 0 0 1 317.633 60.1813)"><tspan x="0" y="0" class="st5 st6 st7">Membership</tspan><tspan x="8.3" y="7.2" class="st5 st6 st7">server </tspan></text>
	
		<use xlink:href="#New_Symbol"  width="67.7" height="37.4" id="XMLID_2_" x="-33.9" y="-18.7" transform="matrix(1 0 0 -1 333.6509 59.8745)" style="overflow:visible;"/>
	<rect x="309.1" y="55.9" class="st4" width="48.8" height="12.8"/>
	<text transform="matrix(1 0 0 1 320.9299 60.1813)"><tspan x="0" y="0" class="st5 st6 st7">Controller</tspan><tspan x="5" y="7.2" class="st5 st6 st7">server </tspan></text>
	<g>
		<g>
			<line class="Graphic_x0020_Style_x0020_4" x1="333.5" y1="80.8" x2="333.5" y2="109.7"/>
			<g>
				<polygon class="st9" points="335.8,81.1 331.2,81.1 333.5,78.8 				"/>
			</g>
			<g>
				<polygon class="st9" points="335.8,109.4 331.2,109.4 333.5,111.7 				"/>
			</g>
		</g>
	</g>
</g>
<text transform="matrix(1 0 0 1 400.0116 390.4828)" class="st5 st6 st7">Ceph/GlusterFS</text>
<g>
	<path class="st14" d="M445.9,399.4h-54.7c-1.6,0-3-1.4-3-3v-16.1c0-1.6,1.4-3,3-3h54.7c1.6,0,3,1.4,3,3v16.1
		C448.9,398,447.6,399.4,445.9,399.4z"/>
</g>
<circle class="st15" cx="331.9" cy="211.8" r="21.8"/>
<g>
	<g>
		<polyline class="st8" points="99.5,266.3 419.6,266.3 419.6,280.8 		"/>
		<g>
			<polygon class="st9" points="421.8,280.5 417.3,280.5 419.6,282.8 			"/>
		</g>
	</g>
</g>
<g>
	<g>
		<polyline class="st8" points="147.2,150.4 147.2,215 67.7,215 67.7,248.5 		"/>
		<g>
			<polygon class="st9" points="149.5,150.7 145,150.7 147.2,148.4 			"/>
		</g>
	</g>
</g>
<g>
	<g>
		<polyline class="Graphic_x0020_Style" points="483.2,333.2 483.2,322.8 451,322.8 451,252 227.3,252 227.3,175.4 		"/>
		<g>
			<polygon class="st9" points="480.9,332.9 485.4,332.9 483.2,335.2 			"/>
		</g>
		<g>
			<polygon class="st9" points="225,175.7 229.5,175.7 227.3,173.5 			"/>
		</g>
	</g>
</g>
<g>
	<g>
		<polyline class="st8" points="353.7,211.8 435.3,211.8 435.3,177 		"/>
		<g>
			<polygon class="st9" points="433,177.3 437.6,177.3 435.3,175 			"/>
		</g>
	</g>
</g>
<rect x="307.5" y="206.4" class="st4" width="48.8" height="12.8"/>
<text transform="matrix(1 0 0 1 321.8537 210.6158)"><tspan x="0" y="0" class="st5 st6 st7">External</tspan><tspan x="2.3" y="7.2" class="st5 st6 st7">Traffic</tspan></text>
<g>
	
		<use xlink:href="#New_Symbol_1"  width="57.8" height="39.4" x="-28.9" y="-19.7" transform="matrix(1 0 0 -1 611.2052 155.5972)" style="overflow:visible;"/>
	<rect x="586.8" y="153.4" class="st4" width="48.8" height="12.8"/>
	<text transform="matrix(1 0 0 1 601.0445 157.6382)"><tspan x="0" y="0" class="st5 st6 st7">External</tspan><tspan x="0.4" y="7.2" class="st5 st6 st7">Storage</tspan></text>
</g>
<g>
	
		<use xlink:href="#New_Symbol_1"  width="57.8" height="39.4" x="-28.9" y="-19.7" transform="matrix(1 0 0 -1 611.2052 96.6862)" style="overflow:visible;"/>
	<rect x="586.8" y="94.5" class="st4" width="48.8" height="12.8"/>
	<text transform="matrix(1 0 0 1 601.0445 98.7272)"><tspan x="0" y="0" class="st5 st6 st7">External</tspan><tspan x="0.4" y="7.2" class="st5 st6 st7">Storage</tspan></text>
</g>
<g>
	<g>
		<line class="st8" x1="564.4" y1="97.7" x2="580.6" y2="97.7"/>
		<g>
			<polygon class="st9" points="580.3,95.5 580.3,100 582.6,97.7 			"/>
		</g>
	</g>
</g>
<g>
	<g>
		<line class="st8" x1="564.4" y1="156.6" x2="580.6" y2="156.6"/>
		<g>
			<polygon class="st9" points="580.3,154.4 580.3,158.9 582.6,156.6 			"/>
		</g>
	</g>
</g>
<g>
	<g>
		<polyline class="st8" points="484.5,282.8 484.5,96.7 497.2,96.7 		"/>
		<g>
			<polygon class="st9" points="496.9,94.4 496.9,99 499.1,96.7 			"/>
		</g>
	</g>
</g>
<g>
	<g>
		<line class="st8" x1="539" y1="282.8" x2="539" y2="176"/>
		<g>
			<polygon class="st9" points="536.7,176.3 541.3,176.3 539,174 			"/>
		</g>
	</g>
</g>
</svg>
